<svg xmlns="http://www.w3.org/2000/svg" width="340.001" height="317" viewBox="0 0 340.001 317"><defs><style>.a{fill:#cecece;}.b{fill:#ebebeb;}.c{fill:#dcdbdb;}.d{fill:#ccc;}.e{fill:#101f32;}.f{fill:#cecdcc;}.g{opacity:0.57;}.h{opacity:0.51;}.i{opacity:0.7;}.j{opacity:0.31;}.k{opacity:0.41;}.l{fill:#fff;}.m{fill:#ededed;}.n{fill:#ea9939;}.o{opacity:0.37;}.p{fill:#bab9b6;}.q{fill:#f67607;}.r{fill:#fc8721;}.s{fill:#fffcec;}.t{opacity:0.12;}</style></defs><g transform="translate(-27.499 -63.98)"><g transform="translate(255.244 63.98)"><g transform="translate(21.151 35.988)"><path class="a" d="M314.511,89.484l-32.673,16.071,7.571-12.887Z" transform="translate(-281.838 -89.484)"/></g><path class="b" d="M363.574,49.98,251.318,66.206l20.571,15.671Z" transform="translate(-251.318 -49.98)"/><g transform="translate(28.695)"><path class="b" d="M376.284,49.98,292.723,89.193l23.185,16.066Z" transform="translate(-292.723 -49.98)"/></g><g transform="translate(20.571)"><path class="c" d="M289.125,89.193l-7.544,12.846L281,81.878l91.685-31.9Z" transform="translate(-281.001 -49.98)"/></g></g><g transform="translate(49.487 157.198)"><path class="b" d="M85.942,157.339v.028c-.373-.012-.745-.028-1.121-.028h0a35.437,35.437,0,0,0-35.333,35.333v43.335c0,.9.045,1.785.112,2.666H203.153V157.339Z" transform="translate(-49.487 -157.339)"/></g><g transform="translate(103.321 157.224)"><path class="d" d="M109.609,185.922h-4.122l-2.211-28.583h6.333Z" transform="translate(-103.275 -157.339)"/></g><g transform="translate(105.534 140.072)"><rect class="e" width="6.333" height="45.75"/></g><g transform="translate(173.26 157.198)"><path class="f" d="M238.486,236.007V192.672c0-19.433-14.7-35.333-32.666-35.333h0c-17.967,0-32.667,15.9-32.667,35.333v43.335c0,.9.042,1.785.1,2.666h65.127C238.445,237.792,238.486,236.9,238.486,236.007Z" transform="translate(-173.153 -157.339)"/></g><g transform="translate(99.364 180.867)"><circle class="d" cx="8.5" cy="8.5" r="8.5"/></g><g class="g" transform="translate(49.487 157.198)"><path class="b" d="M101.171,157.339H85.942v.028c-.373-.012-.745-.028-1.121-.028h0a35.437,35.437,0,0,0-35.333,35.333v43.335c0,.9.045,1.785.112,2.666h78.628C74.739,203.955,80.992,175.743,101.171,157.339Z" transform="translate(-49.487 -157.339)"/></g><g class="h" transform="translate(126.391 160.781)"><path class="f" d="M126.32,160.922h58.166s-24.666,2.416-16.333,72.083C168.153,233.005,155.153,181.172,126.32,160.922Z" transform="translate(-126.32 -160.922)"/></g><g transform="translate(100.365 179.035)"><circle class="e" cx="8.5" cy="8.5" r="8.5"/></g><g class="i" transform="translate(101.944 179.036)"><path class="e" d="M108.82,179.172a8.483,8.483,0,0,0-6.922,3.578,8.491,8.491,0,0,1,11.843,11.844,8.494,8.494,0,0,0-4.921-15.422Z" transform="translate(-101.898 -179.172)"/></g><g transform="translate(86.023 125.599)"><path class="a" d="M111.82,140.172H85.986l6-7.25-6-7.25H111.82Z" transform="translate(-85.986 -125.672)"/></g><g transform="translate(109.66 238.317)"><rect class="e" width="18.619" height="123.999"/></g><g class="j" transform="translate(109.66 238.461)"><path class="e" d="M128.227,263.292l-18.619-6V238.673h18.619Z" transform="translate(-109.609 -238.673)"/></g><g transform="translate(173.258 238.087)"><path class="a" d="M233.153,240.824v40.312c0,18.078-13.5,32.869-30,32.869h0c-16.5,0-30-14.791-30-32.869V240.824c0-.835.038-1.66.1-2.48h59.81C233.115,239.164,233.153,239.989,233.153,240.824Z" transform="translate(-173.153 -238.344)"/></g><g class="k" transform="translate(173.262 157.198)"><path class="f" d="M238.486,190c-.012-.041-1.213-7.417-1.236-7.447l.811,3.988.273,1.533-.273-1.533-13.57-1.041h0a123.561,123.561,0,0,1-12.989-1.288,129.9,129.9,0,0,0-19.384-1.62h0c5-10.429,15.6-17.365,35.709-15.971a31.224,31.224,0,0,0-22.007-9.282h0c-17.967,0-32.667,15.9-32.667,35.333v43.335c0,.9.042,1.785.1,2.666h21.656c-.932-2.955-1.911-6.305-2.821-9.9H234.27a8.306,8.306,0,0,0,1.382-.034c.04-.008.08-.015.119-.026a1.009,1.009,0,0,0,.222-.081l0,0a1.884,1.884,0,0,0,.628-.493,3.406,3.406,0,0,0,.709-2.171l5.791.109" transform="translate(-173.153 -157.339)"/></g><g transform="translate(178.595 238.087)"><path class="b" d="M238.486,240.824v40.312c0,18.078-13.5,32.869-30,32.869h0c-16.5,0-30-14.791-30-32.869V240.824c0-.835.039-1.66.1-2.48h59.81C238.448,239.164,238.486,239.989,238.486,240.824Z" transform="translate(-178.486 -238.344)"/></g><g transform="translate(214.938 245.756)"><path class="l" d="M234.153,246.005v31.038a30.046,30.046,0,0,1-4.894,16.707c-2.946,4.412-7.512,8.682-14.439,9.922C214.82,303.672,232.986,259.838,234.153,246.005Z" transform="translate(-214.82 -246.005)"/></g><g transform="translate(201.598 215.792)"><path class="m" d="M260.081,216.515H201.749a.276.276,0,0,1,0-.552h58.332a.276.276,0,0,1,0,.552Z" transform="translate(-201.473 -215.963)"/></g><g transform="translate(201.598 218.975)"><path class="m" d="M260.081,219.7H201.749a.276.276,0,0,1,0-.552h58.332a.276.276,0,0,1,0,.552Z" transform="translate(-201.473 -219.149)"/></g><g transform="translate(201.598 222.157)"><path class="m" d="M260.081,222.887H201.749a.276.276,0,0,1,0-.552h58.332a.276.276,0,0,1,0,.552Z" transform="translate(-201.473 -222.335)"/></g><g transform="translate(201.598 225.341)"><path class="m" d="M260.081,226.073H201.749a.275.275,0,1,1,0-.551h58.332a.275.275,0,0,1,0,.551Z" transform="translate(-201.473 -225.522)"/></g><g transform="translate(187.331 186.444)"><path class="n" d="M261.568,186.742l-37.152-.145-37.206.1.677.5.682.418,17.242,15.212,12.221,10.782,4.636,4.09a2.648,2.648,0,0,0,3.495,0l4.784-4.22,12.074-10.652,16.415-14.483.682-.418,1.508-1.148Z" transform="translate(-187.21 -186.597)"/></g><g class="o" transform="translate(187.331 186.293)"><path class="p" d="M261.626,186.532l-20.889,11.19a34.492,34.492,0,0,1-32.623-.027l-20.9-11.242v42.776a2.8,2.8,0,0,0,1.952,2.673h0a1.878,1.878,0,0,0,.311.079,2.732,2.732,0,0,0,.386.048c.6.049,1.329.008,1.777.008h65.7c.4,0,1.06.031,1.633,0a2.794,2.794,0,0,0,.56-.062,1.648,1.648,0,0,0,.3-.079h0a2.8,2.8,0,0,0,1.931-2.666V186.8A.342.342,0,0,0,261.626,186.532Z" transform="translate(-187.21 -186.453)"/></g><g transform="translate(188.358 209.437)"><path class="l" d="M188.237,232.135a2.793,2.793,0,0,0,1.782.638h68.925a2.8,2.8,0,0,0,1.782-.638l-36.245-22.522Z" transform="translate(-188.237 -209.613)"/></g><g transform="translate(187.316 186.293)"><path class="q" d="M187.21,186.453v43.511a2.8,2.8,0,0,0,1.027,2.171l36.244-22.522Z" transform="translate(-187.21 -186.453)"/></g><g transform="translate(189.28 209.437)"><path class="q" d="M189.159,232.639a9.272,9.272,0,0,0,2.474.134h65.7a9.368,9.368,0,0,0,2.493-.141l-35.342-23.019Z" transform="translate(-189.159 -209.613)"/></g><g transform="translate(224.612 186.372)"><path class="r" d="M261.626,186.532l-37.145,23.081,36.245,22.522a2.8,2.8,0,0,0,1.026-2.171V186.8A.342.342,0,0,0,261.626,186.532Z" transform="translate(-224.481 -186.532)"/></g><g transform="translate(187.341 186.301)"><path class="s" d="M187.22,186.6h37.271l37.271-.144-18.635,15.419-14.106,11.707-2.521,2.092a3.125,3.125,0,0,1-4.018,0l-2.52-2.092-14.106-11.707-17.6-14.415Z" transform="translate(-187.22 -186.453)"/></g><g transform="translate(187.341 186.302)"><path class="q" d="M187.22,186.592h37.271l37.271-.139L243.127,201.3l-14.106,11.269L226.5,214.58a3.218,3.218,0,0,1-4.018,0l-2.52-2.014L205.856,201.3l-17.6-13.878Z" transform="translate(-187.22 -186.453)"/></g><g class="t" transform="translate(238.154 186.296)"><path class="l" d="M238.061,186.541c-.464,11.8,2.695,29.882,23.691,39.708V186.8a.34.34,0,0,0-.11-.244l.12-.1Z" transform="translate(-238.02 -186.453)"/></g><g transform="translate(81.268 352.316)"><path class="e" d="M81.227,372.672c0-11.046,16.4-20,36.636-20s36.636,8.954,36.636,20" transform="translate(-81.227 -352.672)"/></g><g class="j" transform="translate(112.42 352.316)"><path class="e" d="M117.863,352.672q-2.805,0-5.5.225c17.623,1.448,31.135,9.75,31.135,19.775h11C154.5,361.626,138.1,352.672,117.863,352.672Z" transform="translate(-112.363 -352.672)"/></g><g transform="translate(27.499 371.98)"><path class="c" d="M230.19,381.336H32a4.5,4.5,0,1,1,0-9H230.19a4.5,4.5,0,0,1,0,9Z" transform="translate(-27.499 -372.336)"/></g><g transform="translate(243.699 371.98)"><path class="c" d="M279.333,381.336H248.054a4.5,4.5,0,1,1,0-9h31.279a4.5,4.5,0,0,1,0,9Z" transform="translate(-243.554 -372.336)"/></g><g transform="translate(290.751 371.98)"><path class="c" d="M307,381.336H295.085a4.5,4.5,0,0,1,0-9H307a4.5,4.5,0,0,1,0,9Z" transform="translate(-290.585 -372.336)"/></g></g></svg>