<svg xmlns="http://www.w3.org/2000/svg" width="34" height="40" viewBox="0 0 34 40"><defs><style>.a{fill:#e6e9ed;}.b{fill:#434a54;}.c{fill:#656d78;}.d{fill:#2a9ee5;}.e{fill:#fda050;}.f{fill:#ffce54;}.g{fill:#ffae68;}.h{fill:#ccd1d9;}</style></defs><g transform="translate(0 0.001)"><path class="a" d="M87.935,15.847v6.848L77.857,29.549l-1.89,1.285-1.89-1.285L64,22.694V0H87.935Zm0,0" transform="translate(-58.967)"/><path class="b" d="M156.379,162.334l-.6.812H152L154.517,160Zm0,0" transform="translate(-140.036 -147.069)"/><path class="c" d="M203.774,136l3.774,5.033H200l.6-.812Zm0,0" transform="translate(-184.255 -124.992)"/><path class="d" d="M135.1,56V67.323h-1.258l-3.774-5.032-3.17,4.221-1.862-2.334-2.516,3.145H120V56Zm0,0" transform="translate(-110.549 -51.597)"/><path class="e" d="M5.033,197.359v6.706L0,200.712Zm0,0" transform="translate(0 -181.361)"/><path class="f" d="M166.516,93.258A1.258,1.258,0,1,1,165.258,92,1.258,1.258,0,0,1,166.516,93.258Zm0,0" transform="translate(-151.092 -84.569)"/><path class="e" d="M373.033,200.712,368,204.065v-6.706Zm0,0" transform="translate(-339.033 -181.361)"/><path class="e" d="M255.1,240v20.13L240,250.065l10.065-6.712Zm0,0" transform="translate(-221.098 -220.131)"/><path class="e" d="M15.1,250.065,0,260.13V240l5.033,3.353Zm0,0" transform="translate(0 -220.131)"/><path class="g" d="M34,378.065H0L15.111,368,17,369.258,18.889,368Zm0,0" transform="translate(0 -338.066)"/><g transform="translate(9.451 18.799)"><path class="h" d="M134.468,233.258H120.629a.629.629,0,1,1,0-1.258h13.839a.629.629,0,0,1,0,1.258Zm0,0" transform="translate(-120 -232)"/><path class="h" d="M134.468,265.258H120.629a.629.629,0,1,1,0-1.258h13.839a.629.629,0,0,1,0,1.258Zm0,0" transform="translate(-120 -261.484)"/><path class="h" d="M168.178,297.258h-7.549a.629.629,0,1,1,0-1.258h7.549a.629.629,0,1,1,0,1.258Zm0,0" transform="translate(-156.855 -290.968)"/></g></g></svg>