<svg xmlns="http://www.w3.org/2000/svg" width="1112.032" height="225.015" viewBox="0 0 1112.032 225.015"><defs><style>.a{opacity:0.8;}.b{fill:#eff7fb;}.c{fill:#cee1e9;}.d{fill:#fff;}</style></defs><g class="a" transform="translate(-8.627 53.627)"><g transform="translate(1017.012 -53.612)"><path class="b" d="M956.06,6.968l39.68,41.777,63.95-60.58-39.68-41.777Z" transform="translate(-956.06 53.612)"/><path class="c" d="M1000.366,53.972l64.383-61.01L1004.1-10.093Z" transform="translate(-961.102 48.655)"/><path class="d" d="M956.1,7.169l63.919-60.743-3.485,56.25Z" transform="translate(-956.064 53.559)"/></g><g transform="translate(8.627 84.924)"><path class="b" d="M8.627,294.287l33.521,35.291L96.167,278.4,62.646,243.114Z" transform="translate(-8.627 -243.114)"/><path class="c" d="M46.361,333.738l54.078-51.282-51.226-2.58Z" transform="translate(-12.886 -247.301)"/><path class="d" d="M8.657,294.457l53.987-51.278-2.932,47.483Z" transform="translate(-8.63 -243.159)"/></g><path class="b" d="M95.354,55.236l10.3,10.848,16.6-15.73-10.3-10.848Z" transform="translate(-9.878 -42.401)"/><path class="c" d="M106.847,67.269,123.575,51.6l-15.746-.793Z" transform="translate(-11.187 -43.463)"/><path class="d" d="M95.363,55.288l16.6-15.743-.906,14.576Z" transform="translate(-9.879 -42.414)"/><path class="b" d="M33.146,85.48l5.018,5.283L46.252,83.1l-5.018-5.283Z" transform="translate(-2.793 -58.028)"/><path class="c" d="M38.807,91.575l8.109-7.687-7.695-.564Z" transform="translate(-3.43 -58.811)"/><path class="d" d="M33.128,85.57l8.125-7.7L40.8,85.06Z" transform="translate(-2.798 -58.087)"/><path class="b" d="M871.33,49.429l13.99,14.728L907.864,42.8l-13.99-14.728Z" transform="translate(70.603 -38.041)"/><path class="c" d="M886.935,65.768l22.712-21.275-21.378-1.077Z" transform="translate(68.825 -39.753)"/><path class="d" d="M871.343,49.5l22.718-21.264-1.411,19.68Z" transform="translate(70.601 -37.816)"/></g></svg>